<svg width="170" height="25" viewBox="0 0 170 25" fill="none" xmlns="http://www.w3.org/2000/svg">
<path d="M10.6213 0.796875C10.2533 0.796875 9.88541 0.938389 9.60239 1.22141L2.68259 8.14122C1.52221 9.3016 0.885437 10.8441 0.885437 12.4856C0.885437 14.1271 1.52221 15.6695 2.68259 16.8299C3.84297 17.9903 5.38544 18.6271 7.02695 18.6271C8.66846 18.6271 10.2109 17.9903 11.3713 16.8299L18.0364 10.1648C19.31 8.89123 21.3902 8.89123 22.6779 10.1648C23.3005 10.7875 23.6402 11.6082 23.6402 12.4856C23.6402 13.3629 23.3005 14.1837 22.6779 14.8063L15.4326 22.0516C14.8666 22.6176 14.8666 23.5233 15.4326 24.0752C15.9987 24.6412 16.9043 24.6412 17.4562 24.0752L24.7015 16.8299C25.8619 15.6695 26.4986 14.1271 26.4986 12.4856C26.4986 10.8441 25.8619 9.3016 24.7015 8.14122C22.31 5.74971 18.4043 5.74971 16.0128 8.14122L9.34768 14.8063C8.72504 15.429 7.90431 15.7686 7.02695 15.7686C6.14959 15.7686 5.32881 15.429 4.70617 14.8063C4.08353 14.1837 3.74391 13.3629 3.74391 12.4856C3.74391 11.6082 4.08353 10.7875 4.70617 10.1648L11.626 3.245C12.192 2.67897 12.192 1.77329 11.626 1.22141C11.343 0.938389 10.9751 0.796875 10.6071 0.796875H10.6213Z" fill="url(#paint0_linear_146_8611)"/>
<path d="M16.4798 0.5C16.1119 0.5 15.744 0.641492 15.4609 0.924511C14.8949 1.49055 14.8949 2.39622 15.4609 2.94811L22.6921 10.1792C23.3147 10.8019 23.6544 11.6226 23.6544 12.5C23.6544 13.3774 23.3147 14.1981 22.6921 14.8208C21.4185 16.0943 19.3383 16.0943 18.0505 14.8208L11.3855 8.15565C10.2251 6.99527 8.68262 6.35849 7.04111 6.35849C5.3996 6.35849 3.85717 6.99527 2.6968 8.15565C1.53642 9.31603 0.899597 10.8585 0.899597 12.5C0.899597 14.1415 1.53642 15.684 2.6968 16.8443L9.85717 24.0047C10.4232 24.5708 11.3289 24.5708 11.8808 24.0047C12.4468 23.4387 12.4468 22.533 11.8808 21.9811L4.72037 14.8208C4.09773 14.1981 3.75812 13.3774 3.75812 12.5C3.75812 11.6226 4.09773 10.8019 4.72037 10.1792C5.99396 8.90566 8.07415 8.90566 9.36188 10.1792L16.027 16.8443C17.1873 18.0047 18.7298 18.6415 20.3713 18.6415C22.0128 18.6415 23.5553 18.0047 24.7157 16.8443C25.8761 15.684 26.5128 14.1415 26.5128 12.5C26.5128 10.8585 25.8761 9.31603 24.7157 8.15565L17.4845 0.924511C17.2015 0.641492 16.8336 0.5 16.4656 0.5H16.4798Z" fill="url(#paint1_linear_146_8611)"/>
<path d="M40.0713 8.24799C39.962 8.10109 39.8345 7.95418 39.6341 7.80727C39.4519 7.66037 39.2333 7.54612 38.9964 7.43186C38.7595 7.3176 38.4863 7.23598 38.1765 7.17069C37.885 7.1054 37.5753 7.07276 37.2473 7.07276C36.8283 7.07276 36.4639 7.10539 36.1541 7.18701C35.8444 7.26862 35.5894 7.36657 35.3889 7.48083C35.1885 7.59509 35.0428 7.74198 34.9335 7.90521C34.8424 8.06843 34.7877 8.21535 34.7877 8.37857C34.7877 8.60709 34.8605 8.80295 35.0063 8.94985C35.152 9.09675 35.3343 9.22733 35.5893 9.32526C35.8262 9.4232 36.1177 9.50481 36.4274 9.55378C36.7372 9.60275 37.0834 9.65173 37.4478 9.7007C38.0672 9.76599 38.6685 9.86391 39.2333 9.99449C39.8163 10.1088 40.3082 10.3046 40.7637 10.5495C41.201 10.7943 41.5472 11.1208 41.8205 11.5288C42.0938 11.9369 42.2213 12.4592 42.2213 13.0958C42.2213 13.6997 42.0938 14.2057 41.8205 14.6301C41.5472 15.0545 41.1828 15.3973 40.7273 15.6747C40.2718 15.9522 39.7434 16.1481 39.1422 16.2787C38.5409 16.4093 37.9033 16.4746 37.2656 16.4746C36.6643 16.4746 36.0813 16.4256 35.5529 16.344C35.0245 16.246 34.5326 16.0991 34.0953 15.9033C33.658 15.7074 33.2755 15.4299 32.9293 15.1035C32.5831 14.777 32.3098 14.369 32.1094 13.8793L33.9678 13.0142C34.0954 13.308 34.2775 13.5528 34.5144 13.765C34.733 13.9772 35.0063 14.1568 35.2978 14.2873C35.5893 14.4179 35.9173 14.5322 36.2453 14.5975C36.5914 14.6628 36.9376 14.6954 37.302 14.6954C37.6664 14.6954 37.9943 14.6628 38.3223 14.6138C38.6502 14.5648 38.9418 14.4669 39.1968 14.3363C39.4519 14.2057 39.6523 14.0425 39.7981 13.8466C39.9438 13.6508 40.0349 13.4059 40.0349 13.1121C40.0349 12.8673 39.9621 12.6388 39.8345 12.4755C39.707 12.296 39.5066 12.1491 39.2515 12.0348C38.9964 11.9206 38.7049 11.8226 38.3769 11.741C38.049 11.6594 37.6846 11.6104 37.2837 11.5615C36.6825 11.4962 36.0995 11.4146 35.5347 11.284C34.9699 11.1697 34.4779 10.9902 34.0589 10.7453C33.6216 10.5005 33.2937 10.1904 33.0204 9.81494C32.7653 9.4232 32.6378 8.93353 32.6378 8.34592C32.6378 7.85624 32.7653 7.41553 33.0386 7.04011C33.3119 6.66469 33.658 6.35455 34.0953 6.10971C34.5326 5.86487 35.0246 5.66901 35.5712 5.55475C36.1177 5.42417 36.6643 5.35889 37.2109 5.35889C37.6664 5.35889 38.1401 5.39153 38.5956 5.45682C39.0511 5.52211 39.4884 5.63638 39.8892 5.7996C40.3082 5.96283 40.6726 6.17501 41.0188 6.4525C41.365 6.72998 41.6383 7.05642 41.8569 7.46449L40.0896 8.28062L40.0713 8.24799Z" fill="white"/>
<path d="M45.9022 8.72139V12.7204C45.9022 12.9979 45.9386 13.2591 46.0297 13.5039C46.1208 13.7488 46.2483 13.961 46.4123 14.1405C46.5763 14.32 46.7949 14.4669 47.05 14.5649C47.3051 14.6628 47.5966 14.7118 47.9246 14.7118C48.2525 14.7118 48.5258 14.6628 48.7991 14.5486C49.0724 14.4343 49.291 14.2874 49.4732 14.0915C49.6554 13.8957 49.8012 13.6835 49.9105 13.4223C50.0198 13.1775 50.0562 12.9 50.0562 12.6225V8.72139H52.0968V16.2135H50.2567L50.1291 15.2667C49.6919 15.6585 49.2728 15.936 48.8356 16.1155C48.3983 16.2951 47.8881 16.393 47.3051 16.393C46.8131 16.393 46.3577 16.3114 45.9204 16.1482C45.5013 15.9849 45.1369 15.7401 44.8272 15.43C44.5175 15.1198 44.2806 14.7281 44.1166 14.2711C43.9344 13.814 43.8616 13.308 43.8616 12.7204V8.70508H45.9204L45.9022 8.72139Z" fill="white"/>
<path d="M54.3194 8.72134H56.2507L56.3782 9.74967C56.7062 9.32528 57.1252 9.01516 57.6171 8.83561C58.1273 8.65606 58.601 8.55811 59.0748 8.55811C59.7124 8.55811 60.2955 8.65604 60.8238 8.86824C61.3522 9.06411 61.7894 9.34161 62.1721 9.70071C62.5547 10.0435 62.8462 10.4679 63.0466 10.9412C63.247 11.4146 63.3564 11.9369 63.3564 12.4755C63.3564 13.0142 63.2652 13.5365 63.083 14.0099C62.9008 14.4832 62.6276 14.9076 62.2632 15.2667C61.8988 15.6258 61.4615 15.9033 60.9331 16.0992C60.4048 16.3113 59.8217 16.4093 59.1476 16.4093C58.929 16.4093 58.6739 16.393 58.4188 16.3603C58.1637 16.3277 57.9087 16.2624 57.6536 16.1808C57.3985 16.0992 57.1617 15.9849 56.943 15.8543C56.7244 15.7237 56.524 15.5442 56.3782 15.332V19.6412H54.3194V8.72134ZM58.929 14.5975C59.2751 14.5975 59.6031 14.5485 59.8946 14.4342C60.1861 14.32 60.4412 14.1731 60.6416 13.9772C60.842 13.7813 61.006 13.5528 61.1153 13.2917C61.2247 13.0305 61.2793 12.753 61.2793 12.4592C61.2793 12.1654 61.2247 11.8879 61.1153 11.6268C61.006 11.3656 60.8603 11.1371 60.6416 10.9575C60.4412 10.7617 60.1861 10.6148 59.8946 10.5005C59.6031 10.3862 59.2752 10.3373 58.8925 10.3373C58.5099 10.3373 58.182 10.3862 57.8905 10.5005C57.599 10.6148 57.3439 10.7617 57.1435 10.9575C56.9431 11.1534 56.7791 11.3819 56.6697 11.6268C56.5604 11.8879 56.5058 12.1654 56.5058 12.4592C56.5058 12.753 56.5604 13.0305 56.6697 13.2917C56.7791 13.5528 56.9431 13.7813 57.1435 13.9772C57.3439 14.1731 57.599 14.3363 57.8905 14.4342C58.182 14.5485 58.51 14.5975 58.8561 14.5975H58.929Z" fill="white"/>
<path d="M66.7269 13.1446C66.7998 13.6017 67.0367 13.9934 67.4558 14.2872C67.8748 14.581 68.4578 14.7279 69.2048 14.7279C69.5874 14.7279 69.9883 14.6626 70.4256 14.5484C70.8629 14.4341 71.1908 14.2545 71.4459 14.026L72.7576 15.1849C72.3021 15.593 71.7556 15.8868 71.1179 16.099C70.462 16.2949 69.8243 16.4091 69.1867 16.4091C68.4579 16.4091 67.8202 16.3112 67.2554 16.1153C66.6906 15.9194 66.2168 15.6583 65.816 15.2992C65.4151 14.9564 65.1236 14.532 64.905 14.0423C64.7046 13.5527 64.5953 13.014 64.5953 12.4101C64.5953 11.8061 64.7046 11.3165 64.905 10.8431C65.1054 10.3698 65.4151 9.9454 65.7977 9.60262C66.1803 9.25985 66.6541 8.98237 67.2007 8.7865C67.7473 8.59062 68.3667 8.49268 69.0409 8.49268C69.715 8.49268 70.3526 8.59062 70.9174 8.7865C71.4822 8.98237 71.9378 9.27617 72.3204 9.65159C72.6848 10.0433 72.9581 10.5167 73.1403 11.1043C73.3043 11.6756 73.3589 12.3448 73.2678 13.112H66.7634L66.7269 13.1446ZM71.2636 11.6103C71.1907 11.1206 70.9721 10.7615 70.5895 10.5167C70.2069 10.2718 69.7149 10.1576 69.0955 10.1576C68.5124 10.1576 68.0205 10.2718 67.6197 10.5167C67.2006 10.7615 66.9274 11.1206 66.7634 11.6103H71.2636Z" fill="white"/>
<path d="M76.8207 8.72134L76.9663 9.58644C77.1121 9.35792 77.2761 9.17837 77.4766 9.04779C77.677 8.90088 77.8592 8.80295 78.0596 8.73765C78.26 8.67236 78.4786 8.6234 78.679 8.59076C78.8976 8.55811 79.0981 8.55811 79.2985 8.55811C79.7358 8.55811 80.1366 8.6234 80.5192 8.77031C80.9018 8.91721 81.2116 9.06412 81.4484 9.25999L80.5192 10.8596C80.3006 10.7127 80.082 10.5984 79.8633 10.5168C79.6447 10.4352 79.3713 10.3863 79.0252 10.3863C78.7519 10.3863 78.4968 10.4189 78.2417 10.4842C77.9867 10.5495 77.768 10.6637 77.5676 10.8106C77.3672 10.9575 77.2214 11.1534 77.0939 11.3982C76.9846 11.6431 76.93 11.9369 76.93 12.2797V16.2134H74.8712V8.75399H76.7842L76.8207 8.72134Z" fill="white"/>
<path d="M92.9452 14.8589C92.344 15.3975 91.6516 15.8056 90.8864 16.0505C90.1212 16.2953 89.3013 16.4259 88.4449 16.4259C87.3335 16.4259 86.3861 16.2627 85.6027 15.9525C84.8192 15.6424 84.1634 15.2343 83.6533 14.712C83.1431 14.206 82.7786 13.6184 82.5235 12.9655C82.2867 12.3126 82.1592 11.6434 82.1592 10.9578C82.1592 10.2723 82.2867 9.58671 82.5235 8.91749C82.7786 8.24826 83.1612 7.66065 83.6714 7.13833C84.1815 6.61601 84.8375 6.19162 85.6391 5.86517C86.4226 5.53872 87.3518 5.37549 88.4268 5.37549C89.2467 5.37549 90.0119 5.50607 90.7589 5.78355C91.5059 6.04471 92.1617 6.45278 92.7812 7.00775L91.2872 8.29724C90.8864 7.95447 90.4491 7.70962 89.9572 7.54639C89.4653 7.38317 88.9552 7.30157 88.4268 7.30157C87.698 7.30157 87.0967 7.41582 86.5684 7.62801C86.0582 7.84021 85.6391 8.13402 85.293 8.47679C84.965 8.81957 84.71 9.21131 84.5642 9.65202C84.4185 10.0927 84.3274 10.5334 84.3274 10.9741C84.3274 11.4149 84.4003 11.8556 84.5642 12.28C84.71 12.7043 84.9468 13.0961 85.2747 13.4388C85.6027 13.7816 86.0217 14.0591 86.5319 14.2713C87.042 14.4835 87.6616 14.5814 88.4086 14.5814C88.9187 14.5814 89.4471 14.4835 89.9937 14.3039C90.522 14.1244 90.9958 13.8469 91.3966 13.5042L92.927 14.8752L92.9452 14.8589Z" fill="white"/>
<path d="M98.2105 8.54248C98.8664 8.54248 99.4859 8.64042 100.014 8.85261C100.561 9.06481 101.016 9.3423 101.399 9.70139C101.782 10.0605 102.073 10.4685 102.292 10.9582C102.492 11.4316 102.601 11.9376 102.601 12.4762C102.601 13.0149 102.492 13.5372 102.292 14.0106C102.091 14.4839 101.8 14.9083 101.417 15.2674C101.035 15.6265 100.579 15.904 100.033 16.0998C99.4859 16.2957 98.8847 16.41 98.2105 16.41C97.5364 16.41 96.9169 16.312 96.3886 16.0998C95.8602 15.8876 95.3865 15.6101 95.0039 15.2674C94.6213 14.9083 94.3297 14.5002 94.1475 14.0106C93.9471 13.5372 93.856 13.0149 93.856 12.4762C93.856 11.9376 93.9653 11.4316 94.1657 10.9582C94.3661 10.4849 94.6577 10.0605 95.0403 9.70139C95.423 9.3423 95.8784 9.06481 96.4068 8.85261C96.9352 8.64042 97.5364 8.54248 98.2105 8.54248ZM98.2105 10.2564C97.8461 10.2564 97.5181 10.3216 97.2266 10.4522C96.9533 10.5828 96.7165 10.746 96.5161 10.9582C96.3157 11.1704 96.1881 11.3989 96.0788 11.6601C95.9877 11.9213 95.9331 12.1987 95.9331 12.4762C95.9331 12.7537 95.9877 13.0312 96.0788 13.2924C96.1699 13.5535 96.3157 13.782 96.4979 13.9942C96.6801 14.2064 96.9169 14.3697 97.2084 14.5002C97.4999 14.6308 97.8279 14.6961 98.1923 14.6961C98.5567 14.6961 98.9028 14.6308 99.1761 14.5002C99.4676 14.3697 99.7045 14.2064 99.8867 13.9942C100.069 13.782 100.215 13.5535 100.306 13.2924C100.397 13.0312 100.452 12.7537 100.452 12.4762C100.452 12.1987 100.397 11.9213 100.287 11.6601C100.178 11.3989 100.032 11.1704 99.832 10.9582C99.6316 10.746 99.3948 10.5828 99.1215 10.4522C98.8482 10.3216 98.5385 10.2564 98.1923 10.2564H98.2105Z" fill="white"/>
<path d="M109.835 16.1812V12.1168C109.835 11.872 109.798 11.6435 109.725 11.415C109.653 11.1864 109.543 10.9906 109.397 10.811C109.252 10.6315 109.088 10.5009 108.869 10.3867C108.65 10.2887 108.414 10.2398 108.122 10.2398C107.831 10.2398 107.594 10.2887 107.375 10.3867C107.156 10.4846 106.974 10.6315 106.81 10.811C106.665 10.9906 106.537 11.1864 106.464 11.415C106.391 11.6435 106.355 11.872 106.355 12.1168V16.1812H104.296V8.72174H106.209L106.355 9.55418C106.464 9.35831 106.61 9.19511 106.774 9.06453C106.938 8.93395 107.12 8.81968 107.32 8.75439C107.521 8.67278 107.721 8.62381 107.922 8.57484C108.122 8.5422 108.341 8.52588 108.541 8.52588C109.051 8.52588 109.525 8.62382 109.98 8.83601C110.436 9.04821 110.782 9.40728 111.019 9.91328C111.383 9.37464 111.821 9.01556 112.294 8.83601C112.768 8.65646 113.278 8.55851 113.825 8.55851C115.027 8.55851 115.902 8.86865 116.485 9.48891C117.068 10.1092 117.36 10.9743 117.36 12.1168V16.2138H115.301V12.1168C115.301 11.872 115.264 11.6435 115.21 11.415C115.155 11.1864 115.046 10.9906 114.936 10.8274C114.809 10.6641 114.645 10.5336 114.463 10.4356C114.262 10.3377 114.025 10.2887 113.752 10.2887C113.479 10.2887 113.224 10.3377 113.005 10.4356C112.786 10.5336 112.604 10.6641 112.44 10.8437C112.276 11.0069 112.167 11.2028 112.076 11.4313C111.985 11.6598 111.948 11.8883 111.948 12.1332V16.1975H109.889L109.835 16.1812Z" fill="white"/>
<path d="M124.994 16.1812V12.1168C124.994 11.872 124.957 11.6435 124.884 11.415C124.811 11.1864 124.702 10.9906 124.556 10.811C124.411 10.6315 124.247 10.5009 124.028 10.3867C123.809 10.2887 123.573 10.2398 123.281 10.2398C122.99 10.2398 122.753 10.2887 122.534 10.3867C122.315 10.4846 122.133 10.6315 121.969 10.811C121.823 10.9906 121.696 11.1864 121.623 11.415C121.55 11.6435 121.514 11.872 121.514 12.1168V16.1812H119.455V8.72174H121.368L121.514 9.55418C121.623 9.35831 121.769 9.19511 121.933 9.06453C122.097 8.93395 122.279 8.81968 122.479 8.75439C122.68 8.67278 122.88 8.62381 123.081 8.57484C123.281 8.5422 123.5 8.52588 123.7 8.52588C124.21 8.52588 124.684 8.62382 125.139 8.83601C125.595 9.04821 125.941 9.40728 126.178 9.91328C126.542 9.37464 126.98 9.01556 127.453 8.83601C127.927 8.65646 128.437 8.55851 128.984 8.55851C130.186 8.55851 131.061 8.86865 131.644 9.48891C132.227 10.1092 132.518 10.9743 132.518 12.1168V16.2138H130.459V12.1168C130.459 11.872 130.423 11.6435 130.368 11.415C130.314 11.1864 130.204 10.9906 130.095 10.8274C129.968 10.6641 129.804 10.5336 129.621 10.4356C129.421 10.3377 129.184 10.2887 128.911 10.2887C128.638 10.2887 128.383 10.3377 128.164 10.4356C127.945 10.5336 127.763 10.6641 127.599 10.8437C127.435 11.0069 127.326 11.2028 127.235 11.4313C127.144 11.6598 127.107 11.8883 127.107 12.1332V16.1975H125.048L124.994 16.1812Z" fill="white"/>
<path d="M136.253 13.1446C136.326 13.6017 136.563 13.9934 136.982 14.2872C137.401 14.581 137.984 14.7279 138.731 14.7279C139.113 14.7279 139.514 14.6626 139.951 14.5484C140.389 14.4341 140.717 14.2545 140.972 14.026L142.284 15.1849C141.828 15.593 141.282 15.8868 140.644 16.099C139.988 16.2949 139.35 16.4091 138.713 16.4091C137.984 16.4091 137.346 16.3112 136.781 16.1153C136.216 15.9194 135.743 15.6583 135.342 15.2992C134.941 14.9564 134.65 14.532 134.431 14.0423C134.231 13.5527 134.121 13.014 134.121 12.4101C134.121 11.8061 134.231 11.3165 134.431 10.8431C134.631 10.3698 134.941 9.9454 135.324 9.60262C135.706 9.25985 136.18 8.98237 136.727 8.7865C137.273 8.59062 137.893 8.49268 138.567 8.49268C139.241 8.49268 139.879 8.59062 140.443 8.7865C141.008 8.98237 141.464 9.27617 141.846 9.65159C142.211 10.0433 142.484 10.5167 142.666 11.1043C142.83 11.6756 142.885 12.3448 142.794 13.112H136.289L136.253 13.1446ZM140.79 11.6103C140.717 11.1206 140.498 10.7615 140.115 10.5167C139.733 10.2718 139.241 10.1576 138.621 10.1576C138.038 10.1576 137.547 10.2718 137.146 10.5167C136.727 10.7615 136.453 11.1206 136.289 11.6103H140.79Z" fill="white"/>
<path d="M146.347 8.72134L146.492 9.58644C146.638 9.35792 146.802 9.17837 147.002 9.04779C147.203 8.90088 147.385 8.80295 147.585 8.73765C147.786 8.67236 148.005 8.6234 148.205 8.59076C148.424 8.55811 148.624 8.55811 148.824 8.55811C149.262 8.55811 149.662 8.6234 150.045 8.77031C150.428 8.91721 150.737 9.06412 150.974 9.25999L150.045 10.8596C149.826 10.7127 149.608 10.5984 149.389 10.5168C149.171 10.4352 148.897 10.3863 148.551 10.3863C148.278 10.3863 148.023 10.4189 147.768 10.4842C147.513 10.5495 147.294 10.6637 147.094 10.8106C146.893 10.9575 146.747 11.1534 146.62 11.3982C146.511 11.6431 146.456 11.9369 146.456 12.2797V16.2134H144.397V8.75399H146.31L146.347 8.72134Z" fill="white"/>
<path d="M159.247 15.2345C158.755 15.6588 158.263 15.969 157.734 16.1485C157.224 16.3281 156.641 16.426 156.022 16.426C155.402 16.426 154.837 16.3444 154.309 16.1812C153.781 16.0179 153.307 15.7731 152.906 15.4466C152.505 15.1202 152.196 14.7121 151.959 14.2224C151.722 13.7328 151.613 13.1452 151.613 12.4923C151.613 11.8394 151.722 11.2518 151.959 10.7458C152.196 10.2561 152.505 9.83167 152.906 9.50522C153.307 9.17877 153.781 8.93393 154.309 8.77071C154.837 8.60748 155.42 8.52588 156.022 8.52588C156.623 8.52588 157.17 8.60748 157.625 8.77071C158.08 8.93393 158.554 9.22775 159.028 9.61949L157.734 10.8437C157.479 10.6478 157.224 10.5009 156.933 10.403C156.641 10.305 156.35 10.2561 156.058 10.2561C155.712 10.2561 155.384 10.305 155.092 10.4193C154.801 10.5172 154.546 10.6805 154.327 10.8763C154.109 11.0722 153.945 11.3007 153.835 11.5782C153.726 11.8557 153.653 12.1495 153.653 12.4759C153.653 12.835 153.708 13.1452 153.835 13.4063C153.963 13.6675 154.127 13.896 154.345 14.0755C154.564 14.2551 154.819 14.3857 155.092 14.4836C155.366 14.5815 155.675 14.6142 156.003 14.6142C156.331 14.6142 156.659 14.5652 156.969 14.4836C157.279 14.3857 157.57 14.2388 157.825 13.9939L159.21 15.2018L159.247 15.2345Z" fill="white"/>
<path d="M162.289 13.1446C162.362 13.6017 162.599 13.9934 163.018 14.2872C163.437 14.581 164.02 14.7279 164.767 14.7279C165.149 14.7279 165.55 14.6626 165.987 14.5484C166.425 14.4341 166.753 14.2545 167.008 14.026L168.32 15.1849C167.864 15.593 167.318 15.8868 166.68 16.099C166.024 16.2949 165.386 16.4091 164.749 16.4091C164.02 16.4091 163.382 16.3112 162.817 16.1153C162.252 15.9194 161.779 15.6583 161.378 15.2992C160.977 14.9564 160.686 14.532 160.467 14.0423C160.267 13.5527 160.157 13.014 160.157 12.4101C160.157 11.8061 160.267 11.3165 160.467 10.8431C160.667 10.3698 160.977 9.9454 161.36 9.60262C161.742 9.25985 162.216 8.98237 162.763 8.7865C163.309 8.59062 163.929 8.49268 164.603 8.49268C165.277 8.49268 165.915 8.59062 166.479 8.7865C167.044 8.98237 167.5 9.27617 167.882 9.65159C168.247 10.0433 168.52 10.5167 168.702 11.1043C168.866 11.6756 168.921 12.3448 168.83 13.112H162.325L162.289 13.1446ZM166.826 11.6103C166.753 11.1206 166.534 10.7615 166.152 10.5167C165.769 10.2718 165.277 10.1576 164.657 10.1576C164.074 10.1576 163.583 10.2718 163.182 10.5167C162.763 10.7615 162.489 11.1206 162.325 11.6103H166.826Z" fill="white"/>
<defs>
<linearGradient id="paint0_linear_146_8611" x1="13.7062" y1="22.6743" x2="13.7062" y2="2.21203" gradientUnits="userSpaceOnUse">
<stop stop-color="#6509C4"/>
<stop offset="1" stop-color="#AB00FA"/>
</linearGradient>
<linearGradient id="paint1_linear_146_8611" x1="13.7062" y1="22.901" x2="13.7062" y2="1.78775" gradientUnits="userSpaceOnUse">
<stop stop-color="#AB00FA"/>
<stop offset="1" stop-color="#6509C4"/>
</linearGradient>
</defs>
</svg>
